<?xml version="1.0" encoding="UTF-8"?><svg id="Layer_2" xmlns="http://www.w3.org/2000/svg" xmlns:xlink="http://www.w3.org/1999/xlink" viewBox="0 0 81.6 118.99"><defs><style>.cls-1,.cls-2{stroke:#6b6666;}.cls-1,.cls-2,.cls-3,.cls-4{fill:none;}.cls-1,.cls-4{stroke-miterlimit:10;stroke-width:.78px;}.cls-5{fill:#fff;}.cls-6{clip-path:url(#clippath-1);}.cls-7{fill:#f1f0f0;}.cls-8{clip-path:url(#clippath);}.cls-9{fill:#6b6666;}.cls-4{stroke:#fff;stroke-linecap:round;}</style><clipPath id="clippath"><rect class="cls-3" width="81.6" height="118.99"/></clipPath><clipPath id="clippath-1"><polygon class="cls-3" points="0 118.99 81.6 118.99 76.49 0 0 0 0 118.99"/></clipPath></defs><g id="Layer_1-2"><g><rect class="cls-7" x=".49" y="8.58" width="71.15" height="59.95"/><g class="cls-8"><rect class="cls-2" x=".5" y="8.44" width="71.13" height="110.05"/><path class="cls-9" d="m62.58,44.78v13.22c0,2.1-1.72,3.81-3.83,3.81H13.38c-2.12,0-3.83-1.71-3.83-3.81v-13.22"/><path class="cls-5" d="m62.2,32.81v13.27c0,2.11-1.69,3.82-3.78,3.82H13.71c-2.09,0-3.78-1.71-3.78-3.82v-13.27"/><path class="cls-1" d="m62.2,32.81v13.27c0,2.11-1.69,3.82-3.78,3.82H13.71c-2.09,0-3.78-1.71-3.78-3.82v-13.27"/><path class="cls-5" d="m51.83,31.46c0,.3-.24.54-.52.54s-.53-.24-.53-.54.24-.54.53-.54.52.24.52.54m-10.15,0c0,.3-.24.54-.53.54s-.53-.24-.53-.54.24-.54.53-.54.53.24.53.54m-10.15-.54c0,.3-.24.54-.52.54s-.53-.24-.53-.54.24-.54.53-.54.52.24.52.54m20.31-5.54c0,.3-.24.54-.52.54s-.53-.24-.53-.54.24-.54.53-.54.52.24.52.54m-10.15.14c0,.3-.24.54-.53.54s-.53-.24-.53-.54.24-.54.53-.54.53.24.53.54m-10.15-.14c0,.3-.24.54-.52.54s-.53-.24-.53-.54.24-.54.53-.54.52.24.52.54m20.31-6.35c0,.3-.24.54-.52.54s-.53-.24-.53-.54.24-.54.53-.54.52.24.52.54m-10.15,0c0,.3-.24.54-.53.54s-.53-.24-.53-.54.24-.54.53-.54.53.24.53.54m-10.15,0c0,.3-.24.54-.52.54s-.53-.24-.53-.54.24-.54.53-.54.52.24.52.54m-10.15,11.89c0,.3-.23.54-.52.54s-.52-.24-.52-.54.24-.54.52-.54.52.24.52.54m0-5.54c0,.3-.23.54-.52.54s-.52-.24-.52-.54.24-.54.52-.54.52.24.52.54m0-6.35c0,.3-.23.54-.52.54s-.52-.24-.52-.54.24-.54.52-.54.52.24.52.54m-7.97,17.57h45.33c2.37,0,4.04-2.4,3.28-4.71l-4.41-13.31c-.62-1.87-2.33-3.13-4.25-3.13H18.79c-1.92,0-3.63,1.26-4.25,3.13l-4.41,13.31c-.77,2.31.9,4.71,3.28,4.71"/><path class="cls-1" d="m51.83,31.46c0,.3-.24.54-.52.54s-.53-.24-.53-.54.24-.54.53-.54.52.24.52.54Zm-10.15,0c0,.3-.24.54-.53.54s-.53-.24-.53-.54.24-.54.53-.54.53.24.53.54Zm-10.15-.54c0,.3-.24.54-.52.54s-.53-.24-.53-.54.24-.54.53-.54.52.24.52.54Zm20.31-5.54c0,.3-.24.54-.52.54s-.53-.24-.53-.54.24-.54.53-.54.52.24.52.54Zm-10.15.14c0,.3-.24.54-.53.54s-.53-.24-.53-.54.24-.54.53-.54.53.24.53.54Zm-10.15-.14c0,.3-.24.54-.52.54s-.53-.24-.53-.54.24-.54.53-.54.52.24.52.54Zm20.31-6.35c0,.3-.24.54-.52.54s-.53-.24-.53-.54.24-.54.53-.54.52.24.52.54Zm-10.15,0c0,.3-.24.54-.53.54s-.53-.24-.53-.54.24-.54.53-.54.53.24.53.54Zm-10.15,0c0,.3-.24.54-.52.54s-.53-.24-.53-.54.24-.54.53-.54.52.24.52.54Zm-10.15,11.89c0,.3-.23.54-.52.54s-.52-.24-.52-.54.24-.54.52-.54.52.24.52.54Zm0-5.54c0,.3-.23.54-.52.54s-.52-.24-.52-.54.24-.54.52-.54.52.24.52.54Zm0-6.35c0,.3-.23.54-.52.54s-.52-.24-.52-.54.24-.54.52-.54.52.24.52.54Zm-7.97,17.57h45.33c2.37,0,4.04-2.4,3.28-4.71l-4.41-13.31c-.62-1.87-2.33-3.13-4.25-3.13H18.79c-1.92,0-3.63,1.26-4.25,3.13l-4.41,13.31c-.77,2.31.9,4.71,3.28,4.71Z"/></g><path class="cls-4" d="m55.36,50.85v8.48m-7.7-8.48v8.48m-7.7-8.48v8.48m-7.7-8.48v8.48m-7.7-8.48v8.48m-7.7-8.48v8.48"/><g class="cls-6"><path class="cls-5" d="m63.12,94.01v13.7c0,2.18-1.75,3.95-3.91,3.95H12.92c-2.16,0-3.91-1.77-3.91-3.95v-13.7"/><path class="cls-1" d="m63.12,94.01v13.7c0,2.18-1.75,3.95-3.91,3.95H12.92c-2.16,0-3.91-1.77-3.91-3.95v-13.7"/><path class="cls-5" d="m52.39,92.61c0,.31-.24.56-.54.56s-.54-.25-.54-.56.24-.56.54-.56.54.25.54.56m-10.51,0c0,.31-.24.56-.54.56s-.54-.25-.54-.56.24-.56.54-.56.54.25.54.56m-10.51-.56c0,.31-.24.56-.54.56s-.54-.25-.54-.56.24-.56.54-.56.54.25.54.56m21.03-5.72c0,.31-.24.56-.54.56s-.54-.25-.54-.56.24-.56.54-.56.54.25.54.56m-10.51.14c0,.31-.24.56-.54.56s-.54-.25-.54-.56.24-.56.54-.56.54.25.54.56m-10.51-.14c0,.31-.24.56-.54.56s-.54-.25-.54-.56.24-.56.54-.56.54.25.54.56m21.03-6.56c0,.31-.24.56-.54.56s-.54-.25-.54-.56.24-.56.54-.56.54.25.54.56m-10.51,0c0,.31-.24.56-.54.56s-.54-.25-.54-.56.24-.56.54-.56.54.25.54.56m-10.51,0c0,.31-.24.56-.54.56s-.54-.25-.54-.56.24-.56.54-.56.54.25.54.56m-10.51,12.28c0,.31-.24.56-.54.56s-.54-.25-.54-.56.24-.56.54-.56.54.25.54.56m0-5.72c0,.31-.24.56-.54.56s-.54-.25-.54-.56.24-.56.54-.56.54.25.54.56m0-6.56c0,.31-.24.56-.54.56s-.54-.25-.54-.56.24-.56.54-.56.54.25.54.56m-8.25,18.15h46.94c2.46,0,4.18-2.48,3.39-4.87l-4.56-13.75c-.64-1.93-2.41-3.24-4.4-3.24H18.18c-1.99,0-3.76,1.3-4.4,3.24l-4.57,13.75c-.79,2.39.94,4.87,3.39,4.87"/><path class="cls-1" d="m52.39,92.61c0,.31-.24.56-.54.56s-.54-.25-.54-.56.24-.56.54-.56.54.25.54.56Zm-10.51,0c0,.31-.24.56-.54.56s-.54-.25-.54-.56.24-.56.54-.56.54.25.54.56Zm-10.51-.56c0,.31-.24.56-.54.56s-.54-.25-.54-.56.24-.56.54-.56.54.25.54.56Zm21.03-5.72c0,.31-.24.56-.54.56s-.54-.25-.54-.56.24-.56.54-.56.54.25.54.56Zm-10.51.14c0,.31-.24.56-.54.56s-.54-.25-.54-.56.24-.56.54-.56.54.25.54.56Zm-10.51-.14c0,.31-.24.56-.54.56s-.54-.25-.54-.56.24-.56.54-.56.54.25.54.56Zm21.03-6.56c0,.31-.24.56-.54.56s-.54-.25-.54-.56.24-.56.54-.56.54.25.54.56Zm-10.51,0c0,.31-.24.56-.54.56s-.54-.25-.54-.56.24-.56.54-.56.54.25.54.56Zm-10.51,0c0,.31-.24.56-.54.56s-.54-.25-.54-.56.24-.56.54-.56.54.25.54.56Zm-10.51,12.28c0,.31-.24.56-.54.56s-.54-.25-.54-.56.24-.56.54-.56.54.25.54.56Zm0-5.72c0,.31-.24.56-.54.56s-.54-.25-.54-.56.24-.56.54-.56.54.25.54.56Zm0-6.56c0,.31-.24.56-.54.56s-.54-.25-.54-.56.24-.56.54-.56.54.25.54.56Zm-8.25,18.15h46.94c2.46,0,4.18-2.48,3.39-4.87l-4.56-13.75c-.64-1.93-2.41-3.24-4.4-3.24H18.18c-1.99,0-3.76,1.3-4.4,3.24l-4.57,13.75c-.79,2.39.94,4.87,3.39,4.87Z"/></g></g></g></svg>