<?xml version="1.0" encoding="UTF-8"?><svg id="Layer_2" xmlns="http://www.w3.org/2000/svg" xmlns:xlink="http://www.w3.org/1999/xlink" viewBox="0 0 62.9 47.26"><defs><style>.cls-1{fill:#fff;}.cls-2{stroke:#fff;stroke-linecap:round;}.cls-2,.cls-3{stroke-miterlimit:10;}.cls-2,.cls-3,.cls-4{fill:none;}.cls-3{stroke:#6b6666;}.cls-5{clip-path:url(#clippath);}.cls-6{fill:#6b6666;}</style><clipPath id="clippath"><polygon class="cls-4" points="0 47.26 62.9 47.26 55.12 0 0 0 0 47.26"/></clipPath></defs><g id="Layer_1-2"><g><g class="cls-5"><path class="cls-6" d="m53.54,29.96v13.43c0,2.14-1.73,3.87-3.87,3.87H3.87C1.73,47.26,0,45.53,0,43.39v-13.43"/><path class="cls-1" d="m53.04,17.79v13.21c0,2.1-1.7,3.8-3.8,3.8H4.3c-2.1,0-3.8-1.7-3.8-3.8v-13.21"/><path class="cls-3" d="m53.04,17.79v13.21c0,2.1-1.7,3.8-3.8,3.8H4.3c-2.1,0-3.8-1.7-3.8-3.8v-13.21"/><path class="cls-1" d="m42.62,16.23c0,.29-.24.53-.53.53s-.53-.24-.53-.53.24-.53.53-.53.53.24.53.53m-10.21,0c0,.29-.24.53-.53.53s-.53-.24-.53-.53.24-.53.53-.53.53.24.53.53m-10.21-.53c0,.29-.24.53-.53.53s-.53-.24-.53-.53.24-.53.53-.53.53.24.53.53m20.42-5.44c0,.29-.24.53-.53.53s-.53-.24-.53-.53.24-.53.53-.53.53.24.53.53m-10.21.13c0,.29-.24.53-.53.53s-.53-.24-.53-.53.24-.53.53-.53.53.24.53.53m-10.21-.13c0,.29-.24.53-.53.53s-.53-.24-.53-.53.24-.53.53-.53.53.24.53.53m20.42-6.24c0,.29-.24.53-.53.53s-.53-.24-.53-.53.24-.53.53-.53.53.24.53.53m-10.21,0c0,.29-.24.53-.53.53s-.53-.24-.53-.53.24-.53.53-.53.53.24.53.53m-10.21,0c0,.29-.24.53-.53.53s-.53-.24-.53-.53.24-.53.53-.53.53.24.53.53m-10.21,11.69c0,.29-.24.53-.53.53s-.53-.24-.53-.53.24-.53.53-.53.53.24.53.53m0-5.44c0,.29-.24.53-.53.53s-.53-.24-.53-.53.24-.53.53-.53.53.24.53.53m0-6.24c0,.29-.24.53-.53.53s-.53-.24-.53-.53.24-.53.53-.53.53.24.53.53M3.98,21.29h45.57c2.38,0,4.06-2.36,3.29-4.63l-4.43-13.08c-.62-1.84-2.34-3.08-4.28-3.08H9.4c-1.93,0-3.65,1.24-4.28,3.08L.69,16.66c-.77,2.27.91,4.63,3.29,4.63"/><path class="cls-3" d="m42.62,16.23c0,.29-.24.53-.53.53s-.53-.24-.53-.53.24-.53.53-.53.53.24.53.53Zm-10.21,0c0,.29-.24.53-.53.53s-.53-.24-.53-.53.24-.53.53-.53.53.24.53.53Zm-10.21-.53c0,.29-.24.53-.53.53s-.53-.24-.53-.53.24-.53.53-.53.53.24.53.53Zm20.42-5.44c0,.29-.24.53-.53.53s-.53-.24-.53-.53.24-.53.53-.53.53.24.53.53Zm-10.21.13c0,.29-.24.53-.53.53s-.53-.24-.53-.53.24-.53.53-.53.53.24.53.53Zm-10.21-.13c0,.29-.24.53-.53.53s-.53-.24-.53-.53.24-.53.53-.53.53.24.53.53Zm20.42-6.24c0,.29-.24.53-.53.53s-.53-.24-.53-.53.24-.53.53-.53.53.24.53.53Zm-10.21,0c0,.29-.24.53-.53.53s-.53-.24-.53-.53.24-.53.53-.53.53.24.53.53Zm-10.21,0c0,.29-.24.53-.53.53s-.53-.24-.53-.53.24-.53.53-.53.53.24.53.53Zm-10.21,11.69c0,.29-.24.53-.53.53s-.53-.24-.53-.53.24-.53.53-.53.53.24.53.53Zm0-5.44c0,.29-.24.53-.53.53s-.53-.24-.53-.53.24-.53.53-.53.53.24.53.53Zm0-6.24c0,.29-.24.53-.53.53s-.53-.24-.53-.53.24-.53.53-.53.53.24.53.53ZM3.98,21.29h45.57c2.38,0,4.06-2.36,3.29-4.63l-4.43-13.08c-.62-1.84-2.34-3.08-4.28-3.08H9.4c-1.93,0-3.65,1.24-4.28,3.08L.69,16.66c-.77,2.27.91,4.63,3.29,4.63Z"/></g><path class="cls-2" d="m46.07,36.48v7.91m-7.7-7.91v7.91m-7.7-7.91v7.91m-7.7-7.91v7.91m-7.7-7.91v7.91m-7.7-7.91v7.91"/></g></g></svg>