<?xml version="1.0" encoding="UTF-8"?><svg id="Layer_2" xmlns="http://www.w3.org/2000/svg" xmlns:xlink="http://www.w3.org/1999/xlink" viewBox="0 0 58.68 35.08"><defs><style>.cls-1{stroke:#6b6666;stroke-miterlimit:10;}.cls-1,.cls-2{fill:none;}.cls-3{clip-path:url(#clippath);}</style><clipPath id="clippath"><polygon class="cls-2" points="0 35.08 55.12 35.08 58.68 0 0 0 0 35.08"/></clipPath></defs><g id="Layer_1-2"><g class="cls-3"><path class="cls-1" d="m42.35,16.07c0,.29-.23.52-.52.52s-.53-.23-.53-.52.24-.53.53-.53.52.23.52.53Zm-10.14,0c0,.29-.24.52-.52.52s-.52-.23-.52-.52.23-.53.52-.53.52.23.52.53Zm-10.14-.53c0,.29-.23.53-.52.53s-.52-.24-.52-.53.24-.53.52-.53.52.24.52.53Zm20.28-5.39c0,.29-.23.52-.52.52s-.53-.24-.53-.52.24-.53.53-.53.52.24.52.53Zm-10.14.13c0,.29-.24.53-.52.53s-.52-.24-.52-.53.23-.53.52-.53.52.24.52.53Zm-10.14-.13c0,.29-.23.52-.52.52s-.52-.24-.52-.52.24-.53.52-.53.52.24.52.53Zm20.28-6.18c0,.29-.23.53-.52.53s-.53-.24-.53-.53.24-.53.53-.53.52.24.52.53Zm-10.14,0c0,.29-.24.53-.52.53s-.52-.24-.52-.53.23-.53.52-.53.52.24.52.53Zm-10.14,0c0,.29-.23.53-.52.53s-.52-.24-.52-.53.24-.53.52-.53.52.24.52.53Zm-10.14,11.57c0,.29-.23.53-.53.53s-.52-.24-.52-.53.23-.53.52-.53.53.24.53.53Zm0-5.39c0,.29-.23.52-.53.52s-.52-.24-.52-.52.23-.53.52-.53.53.24.53.53Zm0-6.18c0,.29-.23.53-.53.53s-.52-.24-.52-.53.23-.53.52-.53.53.24.53.53Zm40.78,13.7v13.12c0,2.09-1.69,3.78-3.77,3.78H4.27c-2.08,0-3.77-1.69-3.77-3.78v-13.12m3.46,3.39h45.28c2.37,0,4.04-2.33,3.27-4.58l-4.4-12.94c-.62-1.82-2.33-3.05-4.25-3.05H9.34c-1.92,0-3.63,1.22-4.25,3.05L.69,16.49c-.76,2.25.9,4.58,3.27,4.58Z"/></g></g></svg>